<mxfile host="Electron" modified="2023-06-22T11:48:24.441Z" agent="Mozilla/5.0 (X11; Linux x86_64) AppleWebKit/537.36 (KHTML, like Gecko) draw.io/21.5.0 Chrome/112.0.5615.204 Electron/24.5.1 Safari/537.36" etag="0zO1YsWTwAzJ_TS-KdQP" version="21.5.0" type="device">
  <diagram name="Page-1" id="2YBvvXClWsGukQMizWep">
    <mxGraphModel dx="768" dy="545" grid="1" gridSize="10" guides="1" tooltips="1" connect="1" arrows="1" fold="1" page="1" pageScale="1" pageWidth="850" pageHeight="1100" math="0" shadow="0">
      <root>
        <mxCell id="0" />
        <mxCell id="1" parent="0" />
        <mxCell id="aM9ryv3xv72pqoxQDRHE-1" value="Browser" style="shape=umlLifeline;perimeter=lifelinePerimeter;whiteSpace=wrap;html=1;container=0;dropTarget=0;collapsible=0;recursiveResize=0;outlineConnect=0;portConstraint=eastwest;newEdgeStyle={&quot;edgeStyle&quot;:&quot;elbowEdgeStyle&quot;,&quot;elbow&quot;:&quot;vertical&quot;,&quot;curved&quot;:0,&quot;rounded&quot;:0};" parent="1" vertex="1">
          <mxGeometry x="155" y="40" width="100" height="340" as="geometry" />
        </mxCell>
        <mxCell id="aM9ryv3xv72pqoxQDRHE-2" value="" style="html=1;points=[];perimeter=orthogonalPerimeter;outlineConnect=0;targetShapes=umlLifeline;portConstraint=eastwest;newEdgeStyle={&quot;edgeStyle&quot;:&quot;elbowEdgeStyle&quot;,&quot;elbow&quot;:&quot;vertical&quot;,&quot;curved&quot;:0,&quot;rounded&quot;:0};" parent="aM9ryv3xv72pqoxQDRHE-1" vertex="1">
          <mxGeometry x="45" y="70" width="10" height="260" as="geometry" />
        </mxCell>
        <mxCell id="aM9ryv3xv72pqoxQDRHE-4" value="" style="html=1;points=[];perimeter=orthogonalPerimeter;outlineConnect=0;targetShapes=umlLifeline;portConstraint=eastwest;newEdgeStyle={&quot;edgeStyle&quot;:&quot;elbowEdgeStyle&quot;,&quot;elbow&quot;:&quot;vertical&quot;,&quot;curved&quot;:0,&quot;rounded&quot;:0};" parent="aM9ryv3xv72pqoxQDRHE-1" vertex="1">
          <mxGeometry x="50" y="103" width="10" height="20" as="geometry" />
        </mxCell>
        <mxCell id="89TQFqqYFJ_9SpG-6TM5-5" value="navigate" style="html=1;verticalAlign=bottom;startArrow=oval;endArrow=block;startSize=8;edgeStyle=elbowEdgeStyle;elbow=vertical;curved=0;rounded=0;" edge="1" parent="aM9ryv3xv72pqoxQDRHE-1">
          <mxGeometry relative="1" as="geometry">
            <mxPoint x="-15" y="160" as="sourcePoint" />
            <mxPoint x="45" y="159.82758620689663" as="targetPoint" />
          </mxGeometry>
        </mxCell>
        <mxCell id="89TQFqqYFJ_9SpG-6TM5-7" value="" style="html=1;points=[];perimeter=orthogonalPerimeter;outlineConnect=0;targetShapes=umlLifeline;portConstraint=eastwest;newEdgeStyle={&quot;edgeStyle&quot;:&quot;elbowEdgeStyle&quot;,&quot;elbow&quot;:&quot;vertical&quot;,&quot;curved&quot;:0,&quot;rounded&quot;:0};" vertex="1" parent="aM9ryv3xv72pqoxQDRHE-1">
          <mxGeometry x="50" y="190" width="10" height="20" as="geometry" />
        </mxCell>
        <mxCell id="aM9ryv3xv72pqoxQDRHE-5" value="Service worker" style="shape=umlLifeline;perimeter=lifelinePerimeter;whiteSpace=wrap;html=1;container=0;dropTarget=0;collapsible=0;recursiveResize=0;outlineConnect=0;portConstraint=eastwest;newEdgeStyle={&quot;edgeStyle&quot;:&quot;elbowEdgeStyle&quot;,&quot;elbow&quot;:&quot;vertical&quot;,&quot;curved&quot;:0,&quot;rounded&quot;:0};" parent="1" vertex="1">
          <mxGeometry x="335" y="40" width="100" height="340" as="geometry" />
        </mxCell>
        <mxCell id="aM9ryv3xv72pqoxQDRHE-6" value="" style="html=1;points=[];perimeter=orthogonalPerimeter;outlineConnect=0;targetShapes=umlLifeline;portConstraint=eastwest;newEdgeStyle={&quot;edgeStyle&quot;:&quot;elbowEdgeStyle&quot;,&quot;elbow&quot;:&quot;vertical&quot;,&quot;curved&quot;:0,&quot;rounded&quot;:0};" parent="aM9ryv3xv72pqoxQDRHE-5" vertex="1">
          <mxGeometry x="45" y="80" width="10" height="250" as="geometry" />
        </mxCell>
        <mxCell id="89TQFqqYFJ_9SpG-6TM5-11" value="" style="html=1;points=[];perimeter=orthogonalPerimeter;outlineConnect=0;targetShapes=umlLifeline;portConstraint=eastwest;newEdgeStyle={&quot;edgeStyle&quot;:&quot;elbowEdgeStyle&quot;,&quot;elbow&quot;:&quot;vertical&quot;,&quot;curved&quot;:0,&quot;rounded&quot;:0};" vertex="1" parent="aM9ryv3xv72pqoxQDRHE-5">
          <mxGeometry x="40" y="260" width="10" height="20" as="geometry" />
        </mxCell>
        <mxCell id="aM9ryv3xv72pqoxQDRHE-9" value="&lt;div style=&quot;color: rgb(101, 123, 131); background-color: rgb(253, 246, 227); font-family: &amp;quot;Fira Code&amp;quot;, &amp;quot;Droid Sans Mono&amp;quot;, &amp;quot;monospace&amp;quot;, monospace; line-height: 16px;&quot;&gt;&lt;font style=&quot;font-size: 11px;&quot;&gt;&lt;span style=&quot;color: rgb(38, 139, 210);&quot;&gt;onClicked&lt;/span&gt;.&lt;span style=&quot;color: rgb(38, 139, 210);&quot;&gt;addListener&lt;/span&gt;&lt;/font&gt;&lt;/div&gt;" style="html=1;verticalAlign=bottom;endArrow=block;edgeStyle=elbowEdgeStyle;elbow=vertical;curved=0;rounded=0;" parent="1" target="aM9ryv3xv72pqoxQDRHE-4" edge="1">
          <mxGeometry relative="1" as="geometry">
            <mxPoint x="380" y="143" as="sourcePoint" />
            <Array as="points">
              <mxPoint x="305" y="143" />
            </Array>
          </mxGeometry>
        </mxCell>
        <mxCell id="aM9ryv3xv72pqoxQDRHE-10" value="return" style="html=1;verticalAlign=bottom;endArrow=open;dashed=1;endSize=8;edgeStyle=elbowEdgeStyle;elbow=vertical;curved=0;rounded=0;" parent="1" edge="1">
          <mxGeometry relative="1" as="geometry">
            <mxPoint x="380" y="163" as="targetPoint" />
            <Array as="points">
              <mxPoint x="295" y="163" />
            </Array>
            <mxPoint x="210" y="163" as="sourcePoint" />
          </mxGeometry>
        </mxCell>
        <mxCell id="89TQFqqYFJ_9SpG-6TM5-1" value="Content script" style="shape=umlLifeline;perimeter=lifelinePerimeter;whiteSpace=wrap;html=1;container=0;dropTarget=0;collapsible=0;recursiveResize=0;outlineConnect=0;portConstraint=eastwest;newEdgeStyle={&quot;edgeStyle&quot;:&quot;elbowEdgeStyle&quot;,&quot;elbow&quot;:&quot;vertical&quot;,&quot;curved&quot;:0,&quot;rounded&quot;:0};" vertex="1" parent="1">
          <mxGeometry x="540" y="40" width="100" height="340" as="geometry" />
        </mxCell>
        <mxCell id="89TQFqqYFJ_9SpG-6TM5-2" value="" style="html=1;points=[];perimeter=orthogonalPerimeter;outlineConnect=0;targetShapes=umlLifeline;portConstraint=eastwest;newEdgeStyle={&quot;edgeStyle&quot;:&quot;elbowEdgeStyle&quot;,&quot;elbow&quot;:&quot;vertical&quot;,&quot;curved&quot;:0,&quot;rounded&quot;:0};" vertex="1" parent="89TQFqqYFJ_9SpG-6TM5-1">
          <mxGeometry x="45" y="160" width="10" height="160" as="geometry" />
        </mxCell>
        <mxCell id="89TQFqqYFJ_9SpG-6TM5-14" value="" style="html=1;points=[];perimeter=orthogonalPerimeter;outlineConnect=0;targetShapes=umlLifeline;portConstraint=eastwest;newEdgeStyle={&quot;edgeStyle&quot;:&quot;elbowEdgeStyle&quot;,&quot;elbow&quot;:&quot;vertical&quot;,&quot;curved&quot;:0,&quot;rounded&quot;:0};" vertex="1" parent="89TQFqqYFJ_9SpG-6TM5-1">
          <mxGeometry x="40" y="270" width="10" height="30" as="geometry" />
        </mxCell>
        <mxCell id="89TQFqqYFJ_9SpG-6TM5-3" value="Init" style="text;html=1;align=center;verticalAlign=middle;resizable=0;points=[];autosize=1;strokeColor=none;fillColor=none;" vertex="1" parent="1">
          <mxGeometry x="385" y="100" width="40" height="30" as="geometry" />
        </mxCell>
        <mxCell id="89TQFqqYFJ_9SpG-6TM5-4" value="Init" style="text;html=1;align=center;verticalAlign=middle;resizable=0;points=[];autosize=1;strokeColor=none;fillColor=none;" vertex="1" parent="1">
          <mxGeometry x="590" y="180" width="40" height="30" as="geometry" />
        </mxCell>
        <mxCell id="89TQFqqYFJ_9SpG-6TM5-6" value="load" style="html=1;verticalAlign=bottom;endArrow=open;dashed=1;endSize=8;edgeStyle=elbowEdgeStyle;elbow=vertical;curved=0;rounded=0;" edge="1" parent="1" target="89TQFqqYFJ_9SpG-6TM5-1">
          <mxGeometry x="0.3702" relative="1" as="geometry">
            <mxPoint x="385" y="200" as="targetPoint" />
            <Array as="points">
              <mxPoint x="300" y="200" />
            </Array>
            <mxPoint x="210" y="200" as="sourcePoint" />
            <mxPoint as="offset" />
          </mxGeometry>
        </mxCell>
        <mxCell id="89TQFqqYFJ_9SpG-6TM5-8" value="&lt;div style=&quot;color: rgb(101, 123, 131); background-color: rgb(253, 246, 227); font-family: &amp;quot;Fira Code&amp;quot;, &amp;quot;Droid Sans Mono&amp;quot;, &amp;quot;monospace&amp;quot;, monospace; line-height: 16px;&quot;&gt;&lt;font style=&quot;font-size: 11px;&quot;&gt;&lt;span style=&quot;color: rgb(38, 139, 210);&quot;&gt;onMessage&lt;/span&gt;.&lt;span style=&quot;color: rgb(38, 139, 210);&quot;&gt;addListener&lt;/span&gt;&lt;/font&gt;&lt;/div&gt;" style="html=1;verticalAlign=bottom;endArrow=block;edgeStyle=elbowEdgeStyle;elbow=vertical;curved=0;rounded=0;" edge="1" target="89TQFqqYFJ_9SpG-6TM5-7" parent="1" source="89TQFqqYFJ_9SpG-6TM5-1">
          <mxGeometry relative="1" as="geometry">
            <mxPoint x="380" y="230" as="sourcePoint" />
            <Array as="points">
              <mxPoint x="305" y="230" />
            </Array>
          </mxGeometry>
        </mxCell>
        <mxCell id="89TQFqqYFJ_9SpG-6TM5-9" value="return" style="html=1;verticalAlign=bottom;endArrow=open;dashed=1;endSize=8;edgeStyle=elbowEdgeStyle;elbow=vertical;curved=0;rounded=0;" edge="1" parent="1" target="89TQFqqYFJ_9SpG-6TM5-1">
          <mxGeometry relative="1" as="geometry">
            <mxPoint x="380" y="250" as="targetPoint" />
            <Array as="points">
              <mxPoint x="295" y="250" />
            </Array>
            <mxPoint x="210" y="250" as="sourcePoint" />
          </mxGeometry>
        </mxCell>
        <mxCell id="aM9ryv3xv72pqoxQDRHE-3" value="click" style="html=1;verticalAlign=bottom;startArrow=oval;endArrow=block;startSize=8;edgeStyle=elbowEdgeStyle;elbow=vertical;curved=0;rounded=0;" parent="1" edge="1">
          <mxGeometry relative="1" as="geometry">
            <mxPoint x="140" y="300" as="sourcePoint" />
            <mxPoint x="200" y="300.1724137931035" as="targetPoint" />
          </mxGeometry>
        </mxCell>
        <mxCell id="89TQFqqYFJ_9SpG-6TM5-10" value="" style="endArrow=classic;html=1;rounded=0;" edge="1" parent="1" target="89TQFqqYFJ_9SpG-6TM5-11">
          <mxGeometry width="50" height="50" relative="1" as="geometry">
            <mxPoint x="205" y="300" as="sourcePoint" />
            <mxPoint x="390" y="300" as="targetPoint" />
          </mxGeometry>
        </mxCell>
        <mxCell id="89TQFqqYFJ_9SpG-6TM5-12" value="callback()" style="edgeLabel;html=1;align=center;verticalAlign=middle;resizable=0;points=[];" vertex="1" connectable="0" parent="89TQFqqYFJ_9SpG-6TM5-10">
          <mxGeometry x="0.1371" y="1" relative="1" as="geometry">
            <mxPoint y="-9" as="offset" />
          </mxGeometry>
        </mxCell>
        <mxCell id="89TQFqqYFJ_9SpG-6TM5-13" value="" style="endArrow=classic;html=1;rounded=0;" edge="1" parent="1" source="89TQFqqYFJ_9SpG-6TM5-11">
          <mxGeometry width="50" height="50" relative="1" as="geometry">
            <mxPoint x="380" y="250" as="sourcePoint" />
            <mxPoint x="580" y="310" as="targetPoint" />
          </mxGeometry>
        </mxCell>
        <mxCell id="89TQFqqYFJ_9SpG-6TM5-15" value="message" style="edgeLabel;html=1;align=center;verticalAlign=middle;resizable=0;points=[];" vertex="1" connectable="0" parent="89TQFqqYFJ_9SpG-6TM5-13">
          <mxGeometry x="0.1116" y="2" relative="1" as="geometry">
            <mxPoint y="-8" as="offset" />
          </mxGeometry>
        </mxCell>
        <mxCell id="89TQFqqYFJ_9SpG-6TM5-16" value="" style="endArrow=classic;html=1;rounded=0;" edge="1" parent="1">
          <mxGeometry width="50" height="50" relative="1" as="geometry">
            <mxPoint x="375" y="320" as="sourcePoint" />
            <mxPoint x="204.81034482758616" y="320" as="targetPoint" />
          </mxGeometry>
        </mxCell>
        <mxCell id="89TQFqqYFJ_9SpG-6TM5-17" value="Exécute l&#39;action&lt;br&gt;dans le contexte&lt;br&gt;&lt;div style=&quot;&quot;&gt;&lt;span style=&quot;background-color: initial;&quot;&gt;de la page&lt;/span&gt;&lt;/div&gt;" style="text;html=1;align=left;verticalAlign=middle;resizable=0;points=[];autosize=1;strokeColor=none;fillColor=none;" vertex="1" parent="1">
          <mxGeometry x="600" y="300" width="110" height="60" as="geometry" />
        </mxCell>
      </root>
    </mxGraphModel>
  </diagram>
</mxfile>
